<svg xmlns="http://www.w3.org/2000/svg" width="197.649" height="79.07" viewBox="0 0 197.649 79.07"><g transform="translate(2 -3.996)"><g transform="translate(-2 3.995)"><path d="M88.2,86a7.45,7.45,0,0,1-2.844,4.866,8.39,8.39,0,0,1-5.487,2.047h-7.45Q65.85,92.913,65.9,86h3.733c-.126,2.29.948,3.44,3.238,3.44H76.6a4.287,4.287,0,0,0,2.76-1.015A3.734,3.734,0,0,0,80.784,86Z" transform="translate(-10.611 -13.843)" fill="#fff"/><path d="M84.775,53H92.1L88.886,77.213h-7.4l.461-3.473q-.894,3.473-4.195,3.473H74.027a6.519,6.519,0,0,1-4.967-2.039A5.722,5.722,0,0,1,67.517,70.3l1.368-10.387a7.551,7.551,0,0,1,2.844-4.908A8.39,8.39,0,0,1,77.224,53h4.95l-.562,3.473H80.5A4.237,4.237,0,0,0,77.727,57.5,3.759,3.759,0,0,0,76.3,59.913L74.942,70.3a2.819,2.819,0,0,0,.772,2.416A3.272,3.272,0,0,0,78.23,73.74a4.2,4.2,0,0,0,2.777-1.024A3.75,3.75,0,0,0,82.417,70.3l1.8-13.86Z" transform="translate(-10.86 -8.53)" fill="#fff"/><path d="M88.5,48.193l.42-3.473h7.425l-.461,3.473Z" transform="translate(-14.25 -7.197)" fill="#fff"/><path d="M103.36,77.212,106.557,53h7.408l-.453,3.473a4.824,4.824,0,0,1,1.51-2.634A4.044,4.044,0,0,1,117.707,53h3.725a6.494,6.494,0,0,1,4.967,2.055,5.756,5.756,0,0,1,1.544,4.891l-2.282,17.3h-7.417l2.274-17.3a2.853,2.853,0,0,0-.78-2.45,3.3,3.3,0,0,0-2.517-1.024,4.2,4.2,0,0,0-2.76,1.024,3.767,3.767,0,0,0-1.426,2.45l-2.274,17.3Z" transform="translate(-16.642 -8.529)" fill="#fff"/><path d="M162.494,66.826H147.61l-1.057,6.829a2.819,2.819,0,0,0,.772,2.416,3.255,3.255,0,0,0,2.517,1.024H183.3q3.7,0,4.195-3.44h3.725q-1.779,6.9-8.331,6.913H145.6a6.519,6.519,0,0,1-4.967-2.039,5.7,5.7,0,0,1-1.544-4.875L141.1,59.912A7.551,7.551,0,0,1,143.944,55a8.39,8.39,0,0,1,5.5-2.005h7.45a6.477,6.477,0,0,1,4.967,2.056,5.7,5.7,0,0,1,1.544,4.891Zm-14.422-3.473h7.459l.453-3.44a2.878,2.878,0,0,0-.789-2.45,3.28,3.28,0,0,0-2.517-1.024,4.237,4.237,0,0,0-2.769,1.024,3.759,3.759,0,0,0-1.418,2.45Z" transform="translate(-22.383 -8.529)" fill="#fff"/><path d="M197.917,66.826H183.042l-1.091,6.813a2.844,2.844,0,0,0,.772,2.425,3.247,3.247,0,0,0,2.517,1.015h3.725c2.467,0,3.851-1.141,4.195-3.44h3.725q-1.779,6.922-8.331,6.913h-7.517a6.544,6.544,0,0,1-4.967-2.03,5.705,5.705,0,0,1-1.544-4.883l2.005-13.726A7.551,7.551,0,0,1,179.367,55a8.39,8.39,0,0,1,5.5-2.005h7.459a6.494,6.494,0,0,1,4.967,2.056,5.755,5.755,0,0,1,1.544,4.891Zm-14.422-3.473h7.459l.453-3.44a2.853,2.853,0,0,0-.78-2.45,3.3,3.3,0,0,0-2.517-1.024,4.2,4.2,0,0,0-2.76,1.024,3.767,3.767,0,0,0-1.426,2.45Z" transform="translate(-28.089 -8.529)" fill="#fff"/><path d="M217.065,77.207H209.64l3.188-24.247h7.425l-.914,6.947a9.624,9.624,0,0,1,2.987-5.235,8.147,8.147,0,0,1,5.386-1.678H231.4l-.915,6.947h-7.425a4.2,4.2,0,0,0-2.76,1.015,3.708,3.708,0,0,0-1.418,2.425Z" transform="translate(-33.755 -8.523)" fill="#fff"/><path d="M0,75.88,4.195,44.72H22.77l-.47,3.473H11.15L9.749,58.58h7.459l-.428,3.44H9.288l-1.4,10.387h11.15l-.461,3.473Z" transform="translate(0 -7.197)" fill="#fff"/><path d="M31,77.212,34.289,53h7.417l-.461,3.473a4.774,4.774,0,0,1,1.5-2.634A4.061,4.061,0,0,1,45.431,53h3.725a6.477,6.477,0,0,1,4.958,2.056,5.7,5.7,0,0,1,1.527,4.891L53.317,77.212H45.9l2.332-17.3a2.853,2.853,0,0,0-.78-2.45,3.28,3.28,0,0,0-2.517-1.024,4.237,4.237,0,0,0-2.769,1.024,3.767,3.767,0,0,0-1.426,2.45l-2.3,17.3Z" transform="translate(-4.991 -8.529)" fill="#fff"/><path d="M0,31.327,4.036,0H18.911a6.494,6.494,0,0,1,4.967,2.056,5.747,5.747,0,0,1,1.561,4.891l-.227,1.762a7.182,7.182,0,0,1-2.475,4.8,10.638,10.638,0,0,1-5.873,2.156c2.467,0,4.237.7,5.294,2.1a6.385,6.385,0,0,1,1.267,4.891L23.2,24.414a7.551,7.551,0,0,1-2.836,4.891,8.34,8.34,0,0,1-5.487,2.064Zm7.87-3.49H11.6a4.2,4.2,0,0,0,2.752-.99,3.708,3.708,0,0,0,1.418-2.433l.445-3.49q.453-3.49-3.272-3.49H9.229Zm1.787-13.9h3.767a4.2,4.2,0,0,0,2.752-1.04,3.775,3.775,0,0,0,1.426-2.45l.445-3.5a2.827,2.827,0,0,0-.789-2.433,3.356,3.356,0,0,0-2.517-1.024H11.008Z" transform="translate(0 0.005)" fill="#fff"/><path d="M59.23,22.215H44.346l-.445,3.49a2.844,2.844,0,0,0,.772,2.433,3.264,3.264,0,0,0,2.517,1.032h3.725c2.467,0,3.843-1.158,4.145-3.465h3.725q-1.762,6.955-8.314,6.955H43a6.485,6.485,0,0,1-4.967-2.047,5.764,5.764,0,0,1-1.561-4.908l1.342-10.437a7.551,7.551,0,0,1,2.836-4.933,8.39,8.39,0,0,1,5.479-2.056H53.6a6.5,6.5,0,0,1,4.967,2.064,5.781,5.781,0,0,1,1.552,4.925ZM44.8,18.725h7.459l.445-3.457a2.911,2.911,0,0,0-.789-2.467A3.356,3.356,0,0,0,49.4,11.778,4.237,4.237,0,0,0,46.628,12.8a3.817,3.817,0,0,0-1.41,2.467Z" transform="translate(-5.862 -1.329)" fill="#fff"/></g></g></svg>