<svg xmlns="http://www.w3.org/2000/svg" width="79.12" height="16.18" viewBox="0 0 79.12 16.18"><path d="M15.75 10s-.8.35-1.17-.2a1.07 1.07 0 01.23-1.47c.12-.1.51-.33.51-.33a1.27 1.27 0 01-.32-.85c0-.7.77-1.66.85-1.91a.67.67 0 000-.24c-.15 0-.54.41-1 .53a.62.62 0 01-.51-.13c-.05-.06-.13-.14-.24-.06a2.78 2.78 0 01-1.41.52 1.35 1.35 0 01-.76-.37s-.17.7-.6.71a.62.62 0 01-.61-.68A7.15 7.15 0 0011 4.17a2.41 2.41 0 00-.07-.62s-.49.27-.68 0 0-.45 0-.79-.19-.36-.19-.36a.26.26 0 01-.27.19 1.34 1.34 0 01-.93-.73A6.53 6.53 0 018.43 0c-.51.25-.58 1.72-1.15 2.25a.41.41 0 01-.59 0 .41.41 0 00-.2.32 5.1 5.1 0 010 .94.36.36 0 01-.49.28c-.09 0-.1-.22-.22-.2s-.16 0-.11.49c0 .31.24.92.24 1.2a.69.69 0 01-.59.77.8.8 0 01-.71-.34C4 6.06 3.1 5.43 3.1 5.43a.58.58 0 01-.5.32c-.37 0-1.27-.55-1.36-.59L1 5.05c0 .31.76 1.4.77 2.28a1.13 1.13 0 01-.37.85 2.47 2.47 0 01.84.8c.4.64-.38 1.18-.87 1.09a.53.53 0 00-.63.26c-.07.07-.39.36-.51.36a.32.32 0 00-.23.09C1.31 11.36 1.39 12 1.39 12a2 2 0 01.6.09 1.47 1.47 0 01.86 1c0 .25-.26.47-.26.47a.51.51 0 00.33.28 3.06 3.06 0 00.87 0 3.56 3.56 0 001-.47c.4-.22.73-.3.81-.23s.12.08.22 0c1.09-1.21 1.78-1.17 2.14-.8s.26.92.26 1.51a15.89 15.89 0 01-.2 1.77c0 .19-.07.72-.07.72s.47-.19.54-.24a.27.27 0 00.12-.2c0-.29-.2-1.37-.17-2.18 0-.08-.05-1.19.56-1.37s1.6.74 1.79.89.24.12.61.12a.39.39 0 01.3.06 4.15 4.15 0 001.7.63 1 1 0 00.77-.23 1 1 0 01-.43-.73c0-.57.44-.82 1.15-.89a2.6 2.6 0 012-1.31 1.89 1.89 0 01-1.14-.89zM27 12.84a3.61 3.61 0 113.61-3.61A3.61 3.61 0 0127 12.84zm0-5.95a2.34 2.34 0 102.34 2.34A2.34 2.34 0 0027 6.89zm16 5.95a3.61 3.61 0 113.61-3.61A3.61 3.61 0 0143 12.84zm0-5.95a2.34 2.34 0 102.3 2.34A2.33 2.33 0 0043 6.89zm6.44 1.87c-.49-.47-.7-.71-.66-1a.87.87 0 01.32-.66 1.72 1.72 0 011-.19V5.58a2.88 2.88 0 00-1.73.42 2.1 2.1 0 00-.86 1.57 2.51 2.51 0 001 2.1c.48.45.74.73.69 1.15a.72.72 0 01-.29.56 1.86 1.86 0 01-1.22.16v1.29h.42a2.66 2.66 0 001.53-.42A2 2 0 0050.5 11a2.57 2.57 0 00-1.06-2.24zm-26.83 4.01h-2.94V5.71h1.27v5.78h1.67v1.28zm34.41 0h-2.94V5.72h1.27v5.78h1.67v1.27zm2.36.04l.32-.63h3.66l.32.63h1.42l-3.55-7.19L58 12.81zm2.17-4.32l1.19 2.41h-2.4zM76 5.71h-2.3v7.1H76a3.25 3.25 0 003.13-3.55A3.24 3.24 0 0076 5.71zm0 5.81h-1V7h1c1.28 0 1.86 1.17 1.86 2.27A2 2 0 0176 11.52zm-3.94 1.28V5.66h-1.27v4.92l-3.27-4.9h-1.27v7.11h1.27v-4.8l3.22 4.81h1.32zM37 10.83a2.35 2.35 0 01-1.7.73 2.34 2.34 0 112-3.53l1.1-.66a3.62 3.62 0 10-.14 3.92V9.37H37z" fill="#fff"/></svg>